<svg width="132" height="46" viewBox="0 0 132 46" fill="none" xmlns="http://www.w3.org/2000/svg">
<g clip-path="url(#clip0_193_95)">
<mask id="mask0_193_95" style="mask-type:luminance" maskUnits="userSpaceOnUse" x="0" y="0" width="132" height="46">
<path d="M132 0H0V46H132V0Z" fill="white"/>
</mask>
<g mask="url(#mask0_193_95)">
<path d="M3.41525 42.937C4.2297 42.937 4.84868 42.7574 5.27762 42.3983C5.70656 42.0393 5.92103 41.5279 5.92103 40.8641C5.92103 40.2004 5.70656 39.6917 5.27762 39.3299C4.84868 38.9708 4.22698 38.7885 3.41525 38.7885H1.23525V42.937H3.41525ZM5.97533 45.9266L4.1564 43.3722C3.88763 43.4076 3.64058 43.4266 3.41525 43.4266H1.23525V45.9266H0.678711V38.2853H3.41254C4.37087 38.2853 5.12287 38.5138 5.66855 38.9681C6.21423 39.4224 6.48571 40.0535 6.48571 40.8614C6.48571 41.4653 6.33097 41.974 6.02148 42.3847C5.71199 42.7955 5.27219 43.0866 4.69936 43.2525L6.60516 45.9266H5.97261H5.97533Z" fill="white"/>
<path d="M12.6646 43.3069L10.6611 38.8973L8.66842 43.3069H12.6673H12.6646ZM12.871 43.7775H8.44852L7.47932 45.9292H6.87935L10.3869 38.288H10.9434L14.451 45.9292H13.851L12.871 43.7775Z" fill="white"/>
<path d="M16.0174 38.2853H15.4636V45.9266H16.0174V38.2853Z" fill="white"/>
<path d="M18.716 45.6926C18.211 45.4995 17.8174 45.2492 17.535 44.9445L17.7848 44.531C18.0536 44.8139 18.4146 45.0452 18.868 45.2247C19.3214 45.4042 19.7992 45.4913 20.3014 45.4913C21.0263 45.4913 21.5747 45.3526 21.9466 45.0751C22.3185 44.7976 22.5031 44.4385 22.5031 43.9951C22.5031 43.6524 22.4054 43.3804 22.2072 43.1763C22.0118 42.9723 21.7701 42.8145 21.4769 42.7057C21.1865 42.5969 20.7928 42.4827 20.3014 42.3684C19.7422 42.2297 19.2942 42.0937 18.9549 41.9658C18.6182 41.8352 18.3305 41.6339 18.0943 41.3592C17.8581 41.0872 17.7413 40.7199 17.7413 40.2629C17.7413 39.893 17.8391 39.5529 18.0345 39.2428C18.23 38.9327 18.5314 38.6879 18.9332 38.5056C19.3377 38.3234 19.8399 38.2336 20.4426 38.2336C20.8634 38.2336 21.2788 38.2961 21.686 38.4186C22.0932 38.5437 22.4461 38.7096 22.742 38.9218L22.5357 39.3679C22.2317 39.1558 21.895 38.998 21.5285 38.8864C21.162 38.7776 20.8009 38.7232 20.4453 38.7232C19.7422 38.7232 19.2074 38.8647 18.8436 39.1503C18.4798 39.4332 18.2979 39.8005 18.2979 40.252C18.2979 40.5948 18.3956 40.8668 18.5911 41.0708C18.7866 41.2749 19.0309 41.4299 19.3214 41.5387C19.6119 41.6475 20.0082 41.7645 20.5105 41.8869C21.0697 42.0257 21.5149 42.1617 21.8489 42.2922C22.1828 42.4228 22.4678 42.6214 22.704 42.888C22.9402 43.1546 23.057 43.5109 23.057 43.9625C23.057 44.3325 22.9565 44.6725 22.7583 44.9772C22.5602 45.2818 22.2507 45.5267 21.838 45.7089C21.4254 45.8912 20.915 45.9837 20.3123 45.9837C19.753 45.9837 19.2209 45.8885 18.716 45.6953" fill="white"/>
<path d="M25.1257 38.2853H24.5718V45.9266H25.1257V38.2853Z" fill="white"/>
<path d="M33.6258 38.2853V45.9266H33.167L27.9708 39.2918V45.9266H27.4143V38.2853H27.8839L33.0692 44.9228V38.2853H33.6258Z" fill="white"/>
<path d="M41.3603 42.1399H41.8951V44.9989C41.5612 45.3199 41.1567 45.562 40.6789 45.7307C40.2038 45.8966 39.6988 45.9809 39.1694 45.9809C38.4147 45.9809 37.7333 45.815 37.1279 45.4804C36.5198 45.1458 36.0447 44.6833 35.6999 44.093C35.3551 43.5055 35.1841 42.8417 35.1841 42.1072C35.1841 41.3728 35.3551 40.709 35.6999 40.1214C36.0447 39.5339 36.5198 39.0714 37.1279 38.7341C37.736 38.3995 38.4174 38.2308 39.183 38.2308C39.7423 38.2308 40.2554 38.3206 40.725 38.4974C41.1947 38.677 41.5965 38.9354 41.9304 39.2781L41.5802 39.6481C41.2598 39.3271 40.9042 39.0959 40.5078 38.9544C40.1115 38.813 39.6744 38.7422 39.1939 38.7422C38.5396 38.7422 37.9505 38.8891 37.4238 39.1775C36.8971 39.4686 36.4845 39.8712 36.1886 40.3826C35.8899 40.8967 35.7433 41.468 35.7433 42.1018C35.7433 42.7356 35.8926 43.296 36.1967 43.8101C36.4981 44.3243 36.9107 44.7269 37.432 45.0234C37.9559 45.3172 38.5423 45.4641 39.1966 45.4641C40.068 45.4641 40.7902 45.2328 41.3657 44.765V42.1344L41.3603 42.1399Z" fill="white"/>
<path d="M50.9898 42.3902C51.4187 42.0338 51.6305 41.5251 51.6305 40.8614C51.6305 40.1976 51.416 39.6889 50.9898 39.3271C50.5608 38.9653 49.9391 38.7885 49.1274 38.7885H46.9474V42.9261H49.1274C49.9391 42.9261 50.5608 42.7465 50.9898 42.3902ZM51.3834 38.9681C51.9291 39.4224 52.2006 40.0535 52.2006 40.8614C52.2006 41.6693 51.9291 42.2895 51.3834 42.7438C50.8377 43.1981 50.0857 43.4266 49.1274 43.4266H46.9474V45.9266H46.3909V38.2853H49.1247C50.083 38.2853 50.835 38.5138 51.3807 38.9681" fill="white"/>
<path d="M53.8132 38.2853H54.3697V45.426H58.7569V45.9266H53.8132V38.2853Z" fill="white"/>
<path d="M64.325 43.3069L62.3214 38.8973L60.3287 43.3069H64.3277H64.325ZM64.5313 43.7775H60.1088L59.1396 45.9292H58.5397L62.0472 38.288H62.6038L66.1113 45.9292H65.5113L64.5313 43.7775Z" fill="white"/>
<path d="M68.3293 45.4804C67.7293 45.1458 67.257 44.6834 66.9122 44.0958C66.5674 43.5055 66.3964 42.8444 66.3964 42.1072C66.3964 41.37 66.5674 40.709 66.9122 40.1214C67.257 39.5311 67.7293 39.0714 68.3293 38.7341C68.9293 38.3995 69.6026 38.2308 70.3491 38.2308C70.903 38.2308 71.4106 38.3206 71.8749 38.4974C72.3391 38.677 72.7355 38.9381 73.064 39.289L72.7165 39.6508C72.1056 39.0469 71.3265 38.745 70.3736 38.745C69.7356 38.745 69.1546 38.8891 68.6307 39.1829C68.1067 39.474 67.6968 39.8766 67.3981 40.388C67.0995 40.8994 66.9529 41.4734 66.9529 42.1072C66.9529 42.7411 67.1022 43.3123 67.3981 43.8265C67.6968 44.3406 68.1067 44.7405 68.6307 45.0315C69.1546 45.3226 69.7356 45.4695 70.3736 45.4695C71.3183 45.4695 72.0975 45.1648 72.7165 44.5528L73.064 44.9119C72.7382 45.2628 72.3391 45.5266 71.8722 45.7089C71.4025 45.8912 70.8948 45.9809 70.3519 45.9809C69.6026 45.9809 68.9293 45.815 68.332 45.4777" fill="white"/>
<path d="M79.8185 45.426V45.9266H74.5544V38.2853H79.6528V38.7885H75.111V41.8026H79.175V42.2923H75.111V45.426H79.8185Z" fill="white"/>
<path d="M81.8817 45.6926C81.3767 45.4995 80.9831 45.2492 80.7008 44.9445L80.9505 44.531C81.2193 44.8139 81.5804 45.0452 82.0337 45.2247C82.4871 45.4042 82.9649 45.4913 83.4644 45.4913C84.192 45.4913 84.7404 45.3526 85.1096 45.0751C85.4788 44.7976 85.6662 44.4385 85.6662 43.9951C85.6662 43.6524 85.5684 43.3804 85.3702 43.1763C85.1748 42.9723 84.9332 42.8145 84.64 42.7057C84.3495 42.5969 83.9558 42.4827 83.4617 42.3684C82.9025 42.2297 82.4545 42.0937 82.1179 41.9658C81.7813 41.8352 81.4935 41.6339 81.2573 41.3592C81.0211 41.0872 80.9044 40.7199 80.9044 40.2629C80.9044 39.893 81.0021 39.5529 81.1976 39.2428C81.393 38.9327 81.6944 38.6879 82.0962 38.5056C82.5007 38.3234 83.0029 38.2336 83.6056 38.2336C84.0264 38.2336 84.4418 38.2961 84.849 38.4186C85.2535 38.5437 85.6092 38.7096 85.9051 38.9218L85.6987 39.3679C85.3947 39.1558 85.058 38.998 84.6915 38.8864C84.325 38.7776 83.964 38.7232 83.6083 38.7232C82.9052 38.7232 82.3704 38.8647 82.0066 39.1503C81.6428 39.4332 81.4609 39.8005 81.4609 40.252C81.4609 40.5948 81.5586 40.8668 81.7541 41.0708C81.9496 41.2749 82.1939 41.4299 82.4844 41.5387C82.7749 41.6475 83.1712 41.7645 83.6735 41.8869C84.2327 42.0257 84.678 42.1617 85.0119 42.2922C85.3458 42.4228 85.6309 42.6214 85.8671 42.888C86.1033 43.1546 86.22 43.5109 86.22 43.9625C86.22 44.3325 86.1195 44.6725 85.9214 44.9772C85.7232 45.2818 85.4164 45.5267 85.001 45.7089C84.5884 45.8912 84.078 45.9837 83.4753 45.9837C82.9161 45.9837 82.3839 45.8885 81.879 45.6953" fill="white"/>
<path d="M87.8244 37.9207C87.9113 38.0105 87.9548 38.1193 87.9548 38.2417C87.9548 38.3152 87.9466 38.3914 87.9276 38.4702C87.9086 38.5519 87.8842 38.6416 87.857 38.7423L87.4335 40.2276H87.0399L87.4009 38.6879C87.2923 38.6607 87.2055 38.6063 87.1403 38.5301C87.0752 38.4539 87.0426 38.356 87.0426 38.239C87.0426 38.1085 87.086 37.9996 87.1729 37.9099C87.2598 37.8228 87.3683 37.7793 87.4987 37.7793C87.629 37.7793 87.7403 37.8255 87.8272 37.9153" fill="white"/>
<path d="M98.1082 38.3043L94.7092 45.9456H94.1527L90.7537 38.3043H91.3646L94.4459 45.2247L97.5299 38.3043H98.1082Z" fill="white"/>
<path d="M103.565 43.326L101.561 38.9164L99.5688 43.326H103.568H103.565ZM103.774 43.7966H99.3516L98.3824 45.9483H97.7824L101.29 38.3071H101.844L105.351 45.9483H104.751L103.771 43.7966H103.774Z" fill="white"/>
<path d="M106.288 38.3043H106.844V45.4451H111.234V45.9456H106.288V38.3043Z" fill="white"/>
<path d="M112.95 45.1594C112.415 44.5991 112.149 43.7803 112.149 42.703V38.3043H112.706V42.6813C112.706 43.6198 112.92 44.3216 113.349 44.7868C113.778 45.2519 114.4 45.4859 115.212 45.4859C116.023 45.4859 116.634 45.2519 117.063 44.7868C117.492 44.3216 117.706 43.6198 117.706 42.6813V38.3043H118.263V42.703C118.263 43.7803 117.994 44.5991 117.457 45.1594C116.919 45.7198 116.167 46 115.201 46C114.234 46 113.485 45.7198 112.95 45.1594Z" fill="white"/>
<path d="M125.672 45.4451V45.9456H120.408V38.3043H125.506V38.8076H120.964V41.8189H125.028V42.3113H120.964V45.4451H125.672Z" fill="white"/>
<path d="M127.659 45.7116C127.154 45.5185 126.76 45.2682 126.478 44.9636L126.728 44.5501C126.997 44.833 127.358 45.0642 127.811 45.2438C128.264 45.4233 128.742 45.5103 129.244 45.5103C129.969 45.5103 130.518 45.3716 130.89 45.0941C131.259 44.8194 131.446 44.4576 131.446 44.0142C131.446 43.6714 131.348 43.3994 131.15 43.1954C130.955 42.9914 130.713 42.8336 130.42 42.7248C130.129 42.616 129.736 42.5017 129.244 42.3875C128.685 42.2487 128.237 42.1127 127.898 41.9849C127.561 41.8543 127.273 41.653 127.037 41.3782C126.801 41.1062 126.684 40.739 126.684 40.282C126.684 39.912 126.782 39.572 126.978 39.2619C127.173 38.9517 127.474 38.7069 127.876 38.5247C128.281 38.3424 128.783 38.2526 129.386 38.2526C129.806 38.2526 130.222 38.3152 130.629 38.4376C131.034 38.5627 131.389 38.7287 131.685 38.9409L131.479 39.387C131.175 39.1748 130.838 39.017 130.472 38.9055C130.105 38.7967 129.744 38.7423 129.388 38.7423C128.685 38.7423 128.15 38.8837 127.787 39.1694C127.423 39.4523 127.241 39.8195 127.241 40.2711C127.241 40.6138 127.339 40.8859 127.534 41.0899C127.73 41.2939 127.974 41.449 128.264 41.5578C128.555 41.6666 128.951 41.7836 129.453 41.906C130.013 42.0447 130.458 42.1807 130.792 42.3113C131.126 42.4419 131.411 42.6404 131.647 42.907C131.883 43.1736 132 43.53 132 43.9815C132 44.3515 131.9 44.6915 131.701 44.9962C131.503 45.3009 131.196 45.5457 130.781 45.728C130.368 45.9102 129.858 46.0027 129.255 46.0027C128.696 46.0027 128.164 45.9075 127.659 45.7144" fill="white"/>
<path d="M10.4222 18.8761C5.788 18.8761 2.01711 15.1003 2.01711 10.4541C2.01711 5.80782 5.788 2.03207 10.4222 2.03207H27.9436L29.882 0.0897872C29.7599 0.0381018 29.6241 0.00817871 29.483 0.00817871H10.4222C4.67492 0.010899 0 4.69523 0 10.4541C0 15.7967 4.02336 20.2117 9.1951 20.8238L11.1389 18.8761H10.4249H10.4222Z" fill="white"/>
<path d="M5.03328 10.454C5.03328 13.615 7.59878 16.1829 10.7507 16.1829H13.8212L15.841 14.159H10.7507C8.70915 14.159 7.05039 12.497 7.05039 10.4513C7.05039 8.40565 8.70915 6.74356 10.7507 6.74356H23.2389L25.2587 4.71967H10.7507C7.59607 4.71967 5.03328 7.29033 5.03328 10.4486" fill="white"/>
<path d="M10.11 10.454C10.11 11.0117 10.5606 11.466 11.1199 11.466H18.5341L20.5539 9.44208H11.1199C10.5634 9.44208 10.11 9.89637 10.11 10.454Z" fill="white"/>
<path d="M21.9385 12.2032H21.4688L19.449 14.2271H21.9385C26.5727 14.2271 30.3436 18.0056 30.3436 22.6491C30.3436 27.2926 26.5727 31.0711 21.9385 31.0711H2.64153L0.681427 33.0351C0.78459 33.0732 0.895898 33.095 1.00992 33.095H21.9385C27.6857 33.095 32.3607 28.4106 32.3607 22.6518C32.3607 16.893 27.6857 12.2086 21.9385 12.2086" fill="white"/>
<path d="M27.3274 22.6463C27.3274 19.4854 24.7619 16.9174 21.61 16.9174H16.764L14.7442 18.9413H21.6073C23.6488 18.9413 25.3076 20.6034 25.3076 22.6491C25.3076 24.6947 23.6488 26.3568 21.6073 26.3568H7.34359L5.32376 28.3807H21.6073C24.7619 28.3807 27.3247 25.81 27.3247 22.6518" fill="white"/>
<path d="M22.2534 22.6463C22.2534 22.0887 21.8 21.6344 21.2435 21.6344H12.0538L10.034 23.6583H21.2435C21.8 23.6583 22.2534 23.204 22.2534 22.6463Z" fill="white"/>
<path d="M75.7191 30.8344C73.1155 29.4144 71.074 27.4558 69.5971 24.9504C68.1203 22.4478 67.3818 19.6241 67.3818 16.4795C67.3818 13.3348 68.1257 10.5139 69.6216 8.00852C71.1147 5.50585 73.1617 3.54453 75.7679 2.12454C78.3714 0.709994 81.2844 0 84.5151 0C87.1349 0 89.5266 0.457008 91.6903 1.37374C93.8513 2.29048 95.6784 3.61798 97.1716 5.35624L93.3328 8.97422C91.0171 6.47156 88.1692 5.22022 84.7893 5.22022C82.5957 5.22022 80.6329 5.70171 78.8954 6.66197C77.1606 7.62496 75.8032 8.95789 74.8286 10.6662C73.854 12.3773 73.368 14.3141 73.368 16.4822C73.368 18.6503 73.854 20.5871 74.8286 22.2954C75.8032 24.0065 77.1579 25.3394 78.8954 26.3024C80.6329 27.2627 82.5957 27.7442 84.7893 27.7442C88.1692 27.7442 91.0171 26.4792 93.3328 23.9439L97.1716 27.6082C95.6784 29.3464 93.8432 30.6739 91.6659 31.5907C89.4859 32.5074 87.0887 32.9644 84.4689 32.9644C81.241 32.9644 78.3226 32.2544 75.7191 30.8344Z" fill="white"/>
<path d="M110.534 30.8344C107.93 29.4144 105.889 27.4558 104.412 24.9504C102.935 22.4478 102.197 19.6241 102.197 16.4795C102.197 13.3348 102.943 10.5139 104.434 8.00852C105.927 5.50585 107.974 3.54453 110.58 2.12454C113.186 0.709994 116.102 0 119.33 0C121.95 0 124.341 0.457008 126.505 1.37374C128.666 2.29048 130.493 3.61798 131.986 5.35624L128.148 8.97422C125.832 6.47156 122.984 5.22022 119.604 5.22022C117.411 5.22022 115.445 5.70171 113.71 6.66197C111.975 7.62496 110.618 8.95789 109.643 10.6662C108.669 12.3773 108.183 14.3141 108.183 16.4822C108.183 18.6503 108.669 20.5871 109.643 22.2954C110.618 24.0065 111.973 25.3394 113.71 26.3024C115.448 27.2627 117.411 27.7442 119.604 27.7442C122.984 27.7442 125.832 26.4792 128.148 23.9439L131.986 27.6082C130.493 29.3464 128.658 30.6739 126.481 31.5907C124.301 32.5074 121.904 32.9644 119.284 32.9644C116.056 32.9644 113.137 32.2544 110.534 30.8344Z" fill="white"/>
<path d="M56.004 15.7722C54.481 15.1765 52.5318 14.6052 50.1536 14.0557C48.4188 13.6286 47.0451 13.2478 46.0406 12.9105C45.0362 12.5732 44.2054 12.1161 43.5511 11.5367C42.8969 10.9573 42.5684 10.2092 42.5684 9.29249C42.5684 7.97859 43.1385 6.92584 44.2814 6.13424C45.4244 5.33992 47.1673 4.94276 49.5129 4.94276C50.9436 4.94276 52.4205 5.15766 53.9435 5.58474C54.8394 5.83501 55.7108 6.16416 56.566 6.55316L60.155 2.95695L60.2039 2.83726C58.8329 1.92052 57.204 1.22141 55.3145 0.731756C53.4304 0.244826 51.511 0 49.5618 0C46.7601 0 44.39 0.427085 42.4571 1.28125C40.5214 2.13542 39.0771 3.28882 38.1161 4.73873C37.155 6.18865 36.6772 7.79905 36.6772 9.56724C36.6772 11.6727 37.2175 13.3457 38.298 14.5807C39.3785 15.8184 40.6734 16.7243 42.1802 17.3037C43.6896 17.8859 45.6606 18.4653 48.0985 19.0447C49.8332 19.4718 51.2069 19.8526 52.2114 20.1899C53.2159 20.5273 54.0466 20.9924 54.7009 21.5855C55.3552 22.1812 55.6837 22.9374 55.6837 23.8514C55.6837 25.1028 55.0973 26.1093 53.9245 26.8737C52.7517 27.6381 50.9789 28.0189 48.6007 28.0189C46.6813 28.0189 44.7701 27.6925 42.867 27.0342C41.6589 26.618 40.5838 26.1147 39.6147 25.5462L36.0229 29.1451C37.3614 30.2931 39.1694 31.2153 41.4499 31.9116C43.7493 32.6135 46.1329 32.9644 48.6007 32.9644C51.4024 32.9644 53.7806 32.5373 55.7298 31.6831C57.6791 30.829 59.1342 29.6837 60.0925 28.2501C61.0509 26.8166 61.5314 25.2143 61.5314 23.4434C61.5314 21.3678 60.9884 19.7193 59.9107 18.5007C58.8302 17.282 57.527 16.3707 56.004 15.7776" fill="white"/>
</g>
</g>
<defs>
<clipPath id="clip0_193_95">
<rect width="132" height="46" fill="white"/>
</clipPath>
</defs>
</svg>
